<svg version="1.1" viewBox="0 0 512 640" xmlns="http://www.w3.org/2000/svg" xmlns:xlink="http://www.w3.org/1999/xlink" overflow="hidden"><path d=" M 484.6 2 L 256 2 C 242 2 230.6 13.4 230.6 27.4 L 230.6 77.8 L 205.2 77.8 C 191.2 77.8 179.8 89.2 179.8 103.2 L 179.8 129 L 129 129 C 115 129 103.6 140.4 103.6 154.4 L 103.6 224.6 L 9.9 402.5 C -1.6 425.6 -0.4 452.5 13.1 474.4 C 26.7 496.4 54.7 510 80.5 510 C 121.3 510 154.4 476.8 154.4 436.1 L 154.4 179.8 L 179.8 179.8 L 179.8 205.2 C 179.8 219.2 191.2 230.6 205.2 230.6 L 230.6 230.6 L 230.6 499.8 C 230.6 505.4 235.1 510 240.8 510 L 499.9 510 C 505.5 510 510.1 505.5 510.1 499.8 L 510.1 27.4 C 510 13.4 498.6 2 484.6 2 Z M 103.6 436.1 C 103.6 448.8 93.2 459.2 80.5 459.2 C 68.9 459.2 58.4 451 56.3 447.7 C 54.3 444.4 50.1 435.6 55.3 425.2 L 103.6 338.1 L 103.6 436.1 Z M 383 459.2 C 354.9 459.2 332.2 436.5 332.2 408.4 C 332.2 357.8 383 306.8 383 306.8 C 383 306.8 433.8 358.8 433.8 408.4 C 433.8 436.5 411.1 459.2 383 459.2 Z M 459.2 195 C 459.2 200.6 454.7 205.2 449 205.2 L 291.6 205.2 C 286 205.2 281.4 200.7 281.4 195 L 281.4 63 C 281.4 57.4 285.9 52.8 291.6 52.8 L 449 52.8 C 454.6 52.8 459.2 57.3 459.2 63 L 459.2 195 Z"/><text fill="#000000" font-family="Helvetica Neue,Helvetica,Arial-Unicode,Arial,Arial" font-weight="700" font-size="5" x="0" y="527">Created by ProSymbols</text><text fill="#000000" font-family="Helvetica Neue,Helvetica,Arial-Unicode,Arial,Arial" font-weight="700" font-size="5" x="0" y="532">from the Noun Project</text></svg>